<svg xmlns="http://www.w3.org/2000/svg" height="24" viewBox="0 -960 960 960" width="24"><path d="M393-48q-20 0-34.5-13T341-94l-12-89q-7-4-15-8.5t-15-9.5l-85 35q-19 8-37.5 1T148-189L62-342q-10-17-6.5-36.5T75-410l70-54v-36l-69-52q-16-12-20-31.5t6-36.5l86-151q10-17 28.5-24t37.5 1l81 33q8-5 17.5-10t17.5-10l11-87q2-20 17.5-33t35.5-13h172q20 0 35.5 13t17.5 33l11 88q8 5 17.5 10t17.5 10l81-34q19-8 37.5-1t28.5 24l86 151q10 17 6 36.5T884-552l-71 54v36l69 52q16 12 20 31.5t-6 36.5l-86 153q-10 17-28.5 24t-37.5-1l-84-35q-7 4-14.5 8.5T631-184l-12 90q-2 20-17 33t-35 13H393Zm86-266q70 0 119-49t49-119q0-70-49-119t-119-49q-70 0-119 49t-49 119q0 70 49 119t119 49Z"/></svg>