<svg xmlns="http://www.w3.org/2000/svg" height="24" viewBox="0 -960 960 960" width="24"><path d="M480-230q71 0 120.5-49.938Q650-329.875 650-400v-37q0-22-15.5-37.5T597-490H363q-22 0-37.5 15.5T310-437v37q0 70.125 49.938 120.062Q409.875-230 480-230Zm0-80q-37 0-63.5-26.5T390-400v-10h180v10q0 37-26.1 63.5T480-310ZM340-690q-36.38 0-64.2 23.158T233-610q-7 15 0 30t24.217 19Q273-557 287-564.5q14-7.5 22-21.5 5-9 12.5-16.5t18.357-7.5q10.857 0 19 8T372-584q8 14 22 20.5t29.304 2.5Q440-565 447-579.5t0-29.5q-14.98-34.105-42.8-57.553Q376.38-690 340-690Zm280 0q-36.38 0-64.2 23.158T513-610q-7 15 0 30t24.217 19Q553-557 567-564.5q14-7.5 22-21.5 5-9 12.5-16.5t18.357-7.5q10.857 0 19 8T652-584q8 14 22 20.5t29.304 2.5Q720-565 727-579.5t0-29.5q-14.98-34.105-42.8-57.553Q656.38-690 620-690ZM480-48q-89.64 0-168.48-34.02-78.84-34.02-137.16-92.34-58.32-58.32-92.34-137.16T48-480q0-89.64 34.02-168.48 34.02-78.84 92.34-137.16 58.32-58.32 137.16-92.34T480-912q89.64 0 168.48 34.02 78.84 34.02 137.16 92.34 58.32 58.32 92.34 137.16T912-480q0 89.64-34.02 168.48-34.02 78.84-92.34 137.16-58.32 58.32-137.16 92.34T480-48Z"/></svg>