<svg xmlns="http://www.w3.org/2000/svg" height="24" viewBox="0 -960 960 960" width="24"><path d="M154-48q-43.725 0-74.862-31.138Q48-110.275 48-154v-478q0-43.725 31.138-74.862Q110.275-738 154-738h138v-80q0-43.725 31.138-74.862Q354.275-924 398-924h164q43.725 0 74.862 31.138Q668-861.725 668-818v80h138q43.725 0 74.862 31.138Q912-675.725 912-632v478q0 43.725-31.138 74.862Q849.725-48 806-48H154Zm244-690h164v-80H398v80Zm29 398v67q0 22 15.5 37.5T480-220q22 0 37.5-15.5T533-273v-67h67q22 0 37.5-15.5T653-393q0-22-15.5-37.5T600-446h-67v-67q0-22-15.5-37.5T480-566q-22 0-37.5 15.5T427-513v67h-67q-22 0-37.5 15.5T307-393q0 22 15.5 37.5T360-340h67Z"/></svg>