<svg xmlns="http://www.w3.org/2000/svg" height="24" viewBox="0 -960 960 960" width="24"><path d="M478-810q-38 0-64-26t-26-64q0-38 26-64t64-26q38 0 64 26t26 64q0 38-26 64t-64 26ZM338-243v-425.135Q291-672 242.5-679.5T146-698q-23-5-35.5-24.5T103-765q5-23 26-33.5t44-5.5q72 15 151 22.5t154 7.5q75 0 155.5-7.5T787-804q23-5 44 5.5t26 33.5q5 23-7.5 42.5T814-698q-48 11-96.322 18.389Q669.356-672.222 622-668v425q0 22-15.5 37.5T569-190q-22 0-37.5-15.5T516-243v-191h-72v191q0 22-15.5 37.5T391-190q-22 0-37.5-15.5T338-243ZM320 18q-19.55 0-32.775-13.225Q274-8.45 274-28q0-19.55 13.225-32.775Q300.45-74 320-74q19.55 0 32.775 13.225Q366-47.55 366-28q0 19.55-13.225 32.775Q339.55 18 320 18Zm160 0q-19.55 0-32.775-13.225Q434-8.45 434-28q0-19.55 13.225-32.775Q460.45-74 480-74q19.55 0 32.775 13.225Q526-47.55 526-28q0 19.55-13.225 32.775Q499.55 18 480 18Zm160 0q-19.55 0-32.775-13.225Q594-8.45 594-28q0-19.55 13.225-32.775Q620.45-74 640-74q19.55 0 32.775 13.225Q686-47.55 686-28q0 19.55-13.225 32.775Q659.55 18 640 18Z"/></svg>