<svg xmlns="http://www.w3.org/2000/svg" height="24" viewBox="0 -960 960 960" width="24"><path d="M495-88q-137.025 0-242.512-80Q147-248 113-374q-5-21 8-38t35.667-20Q178-435 196-425t24 30q26 89 101 145t171.52 56q118.872 0 201.676-83.5Q777-361 777-479.5T694.918-682Q612.836-766 495-766q-75.937 0-141.968 36Q287-694 247-630h67q22 0 37.5 15.5T367-577q0 22-15.5 37.5T314-524H130q-22 0-37.5-15.5T77-577v-184q0-22 15.5-37.5T130-814q22 0 37.5 15.5T183-761v43q53-76 136.129-115Q402.258-872 495-872q80.833 0 151.428 31.1 70.594 31.1 122.866 84.025 52.273 52.924 82.989 124.4Q883-561 883-480t-30.717 152.475q-30.716 71.476-82.989 124.4Q717.022-150.2 646.428-119.1 575.833-88 495-88Zm-2.159-298Q454-386 426.5-413.659q-27.5-27.66-27.5-66.5Q399-519 426.659-546.5q27.66-27.5 66.5-27.5Q532-574 559.5-546.341q27.5 27.66 27.5 66.5Q587-441 559.341-413.5q-27.66 27.5-66.5 27.5Z"/></svg>