<svg xmlns="http://www.w3.org/2000/svg" height="24" viewBox="0 -960 960 960" width="24"><path d="M426-340v118q0 22.1 14.93 37.05 14.93 14.95 37 14.95T515-184.95q15-14.95 15-37.05v-118l24 24q7.143 7 16.071 10.5Q579-302 589-302q10 0 18.806-3.5 8.807-3.5 16.355-10.5Q638-330 638-351t-14-35L515-495q-7.929-8.182-17.179-11.591Q488.571-510 478-510q-10.571 0-19.821 3.409Q448.929-503.182 441-495L332-386q-14 14-14 35t14 35q14 14 35 14t35-14l24-24ZM236-48q-43.725 0-74.863-31.138Q130-110.275 130-154v-652q0-43.725 31.137-74.862Q192.275-912 236-912h268q21.429 0 40.848 8.087Q564.268-895.826 579-881l220 219q14.826 14.732 22.913 34.152Q830-608.429 830-587v433q0 43.725-31.138 74.862Q767.725-48 724-48H236Zm260-583q0 22 15.5 37.5T549-578h175L496-806v175Z"/></svg>