<svg xmlns="http://www.w3.org/2000/svg" height="24" viewBox="0 -960 960 960" width="24"><path d="M130-320q-62 0-105-43.029-43-43.03-43-104.5Q-18-529 25.5-571.5 69-614 130-614v-57q0-43.725 31.137-74.862Q192.275-777 236-777h98q0-61 42.618-103.5 42.617-42.5 103.5-42.5Q541-923 583.5-880.417 626-837.833 626-777h98q43.725 0 74.862 31.138Q830-714.725 830-671v57q61 0 104.5 42.583Q978-528.833 978-468q0 61.667-43.167 104.833Q891.667-320 830-320v137q0 43.725-31.138 74.863Q767.725-77 724-77H236q-43.725 0-74.863-31.137Q130-139.275 130-183v-137Zm228-95q30.417 0 51.708-21.292Q431-457.583 431-488q0-30.417-21.292-51.708Q388.417-561 358-561q-30.417 0-51.708 21.292Q285-518.417 285-488q0 30.417 21.292 51.708Q327.583-415 358-415Zm244 0q30.417 0 51.708-21.292Q675-457.583 675-488q0-30.417-21.292-51.708Q632.417-561 602-561q-30.417 0-51.708 21.292Q529-518.417 529-488q0 30.417 21.292 51.708Q571.583-415 602-415ZM357-252h246q22 0 37.5-15.5T656-305q0-22-15.5-37.5T603-358H357q-22 0-37.5 15.5T304-305q0 22 15.5 37.5T357-252Z"/></svg>